<svg width="50" height="50" viewBox="0 0 50 50" fill="none" xmlns="http://www.w3.org/2000/svg">
<path d="M14.0936 24.0219C14.0936 24.6375 14.1561 25.1375 14.2749 25.5062C14.4061 25.8719 14.5749 26.2719 14.8061 26.7062C14.8799 26.821 14.92 26.9542 14.9217 27.0906C14.9217 27.2562 14.8217 27.425 14.6092 27.5906L13.5592 28.2906C13.4332 28.3816 13.2833 28.4338 13.128 28.4406C12.9592 28.4406 12.7936 28.3594 12.628 28.2094C12.4034 27.9677 12.2025 27.705 12.028 27.425C11.8431 27.1044 11.6721 26.7759 11.5155 26.4406C10.2155 27.975 8.58735 28.7438 6.62485 28.7438C5.22798 28.7438 4.11235 28.3406 3.29985 27.5406C2.48423 26.7406 2.0686 25.6719 2.0686 24.3375C2.0686 22.9188 2.5686 21.7688 3.5811 20.9C4.59673 20.0313 5.9436 19.6 7.6561 19.6C8.2186 19.6 8.80298 19.65 9.4186 19.7313C10.0342 19.8156 10.6686 19.95 11.3311 20.1V18.8813C11.3311 17.6125 11.0655 16.7281 10.5499 16.2125C10.0186 15.6938 9.1186 15.4438 7.83735 15.4438C7.2561 15.4438 6.65923 15.5125 6.0436 15.6625C5.43196 15.8081 4.83147 15.9971 4.24673 16.2281C4.05794 16.3136 3.86378 16.3867 3.66548 16.4469C3.57955 16.4753 3.49022 16.4921 3.39985 16.4969C3.16548 16.4969 3.04985 16.3281 3.04985 15.9781V15.1594C3.04985 14.8938 3.0811 14.6906 3.16548 14.5781C3.29141 14.4248 3.45211 14.3037 3.63423 14.225C4.21235 13.925 4.91235 13.675 5.72798 13.475C6.54048 13.2562 7.4061 13.1594 8.32173 13.1594C10.2999 13.1594 11.7467 13.6094 12.678 14.5094C13.5936 15.4094 14.0592 16.7781 14.0592 18.6156V24.0219H14.0905H14.0936ZM7.34048 26.5563C7.88735 26.5563 8.45298 26.4563 9.05298 26.2563C9.65298 26.0563 10.1842 25.6875 10.6311 25.1875C10.8991 24.8805 11.0926 24.5158 11.1967 24.1219C11.2967 23.7188 11.3655 23.2375 11.3655 22.6688V21.9688C10.8607 21.8464 10.3495 21.7525 9.83423 21.6875C9.31607 21.6205 8.79421 21.586 8.27173 21.5844C7.1561 21.5844 6.3436 21.8031 5.7936 22.2531C5.2436 22.7031 4.9811 23.3375 4.9811 24.1719C4.9811 24.9531 5.17798 25.5375 5.5936 25.9406C5.9936 26.3562 6.57485 26.5563 7.34048 26.5563ZM20.6936 28.3594C20.3936 28.3594 20.1936 28.3094 20.0624 28.1906C19.928 28.0906 19.8124 27.8594 19.7124 27.5406L15.8061 14.6438C15.7301 14.4275 15.6798 14.203 15.6561 13.975C15.6561 13.7094 15.7874 13.5594 16.053 13.5594H17.6842C17.9967 13.5594 18.2155 13.6094 18.3311 13.725C18.4655 13.825 18.5655 14.0594 18.6655 14.375L21.4592 25.4219L24.053 14.375C24.1342 14.0438 24.2342 13.825 24.3686 13.725C24.5682 13.6028 24.8006 13.545 25.0342 13.5594H26.3655C26.678 13.5594 26.8967 13.6094 27.028 13.725C27.1624 13.825 27.278 14.0594 27.3467 14.375L29.9717 25.5563L32.8467 14.375C32.9002 14.1331 33.0154 13.9092 33.1811 13.725C33.3748 13.6025 33.6024 13.5445 33.8311 13.5594H35.378C35.6436 13.5594 35.7936 13.6938 35.7936 13.975C35.7936 14.0594 35.7749 14.1438 35.7624 14.2438C35.7354 14.3856 35.6956 14.5247 35.6436 14.6594L31.6342 27.5563C31.5374 27.8906 31.4186 28.1094 31.2874 28.2094C31.0986 28.3301 30.8766 28.388 30.653 28.375H29.2249C28.9092 28.375 28.6936 28.325 28.5592 28.2094C28.4249 28.0906 28.3092 27.875 28.2436 27.5406L25.6655 16.7813L23.103 27.5281C23.0217 27.8625 22.9217 28.0781 22.7905 28.1938C22.6561 28.3125 22.4217 28.3625 22.1249 28.3625H20.6936V28.3594ZM42.0624 28.8094C41.1994 28.8105 40.3392 28.7098 39.4999 28.5094C38.6686 28.3094 38.0217 28.0906 37.5874 27.8406C37.3217 27.6906 37.1405 27.525 37.0717 27.3719C37.0084 27.2248 36.9754 27.0664 36.9749 26.9062V26.0563C36.9749 25.7063 37.1061 25.5375 37.3561 25.5375C37.4582 25.5377 37.5595 25.5546 37.6561 25.5875C37.7561 25.6219 37.9061 25.6875 38.0717 25.7562C38.6342 26.0062 39.253 26.2063 39.8999 26.3406C40.5655 26.4719 41.2124 26.5406 41.878 26.5406C42.928 26.5406 43.7405 26.3563 44.3061 25.9906C44.5778 25.8261 44.8011 25.5926 44.9531 25.3137C45.1052 25.0348 45.1806 24.7206 45.1717 24.4031C45.1773 24.1888 45.1405 23.9754 45.0632 23.7753C44.986 23.5753 44.8699 23.3925 44.7217 23.2375C44.4249 22.9188 43.8592 22.6344 43.0436 22.3688L40.6311 21.6188C39.4186 21.2344 38.5186 20.6656 37.9717 19.9156C37.4364 19.2226 37.1442 18.3726 37.1405 17.4969C37.1405 16.7969 37.2905 16.1781 37.5874 15.6438C37.8874 15.1125 38.2874 14.6438 38.7874 14.275C39.2874 13.8938 39.8499 13.6094 40.5155 13.4094C41.1811 13.2094 41.878 13.125 42.6092 13.125C42.978 13.125 43.3592 13.1406 43.7249 13.1906C44.1061 13.2406 44.4561 13.3094 44.8061 13.3781C45.1374 13.4594 45.4561 13.5406 45.753 13.6438C46.053 13.7438 46.2842 13.8438 46.453 13.9438C46.6491 14.0424 46.8202 14.1845 46.953 14.3594C47.0599 14.5221 47.1115 14.715 47.0999 14.9094V15.6938C47.0999 16.0438 46.9686 16.2281 46.7186 16.2281C46.4972 16.2028 46.2829 16.1349 46.0874 16.0281C45.0824 15.5827 43.9927 15.3609 42.8936 15.3781C41.9467 15.3781 41.1967 15.5281 40.6811 15.8469C40.1655 16.1594 39.8999 16.6469 39.8999 17.3313C39.8999 17.7969 40.0655 18.1969 40.3999 18.5156C40.7311 18.8313 41.3467 19.1469 42.228 19.4313L44.5905 20.1813C45.7874 20.5656 46.653 21.1 47.1686 21.7844C47.6842 22.4688 47.9311 23.2531 47.9311 24.1219C47.9311 24.8406 47.7842 25.4875 47.4999 26.0563C47.2055 26.627 46.792 27.1279 46.2874 27.525C45.7717 27.9406 45.1561 28.2438 44.4405 28.4594C43.6905 28.6938 42.9092 28.8094 42.0624 28.8094Z" fill="white"/>
<path fill-rule="evenodd" clip-rule="evenodd" d="M45.2029 36.9157C39.7342 40.9688 31.7842 43.1219 24.9498 43.1219C15.3717 43.1219 6.74041 39.5688 0.221657 33.6625C-0.293968 33.1938 0.171657 32.5594 0.784157 32.9282C7.83728 37.0313 16.5342 39.5188 25.5342 39.5188C31.5998 39.5188 38.2685 38.25 44.406 35.6469C45.3217 35.2313 46.1029 36.2469 45.2029 36.9157Z" fill="white"/>
<path fill-rule="evenodd" clip-rule="evenodd" d="M47.4812 34.3124C46.7843 33.4156 42.8593 33.8812 41.0812 34.0968C40.5499 34.1656 40.4655 33.6968 40.9468 33.3468C44.0718 31.1437 49.2124 31.7781 49.8093 32.5124C50.4093 33.2624 49.6437 38.4187 46.7155 40.8874C46.2687 41.2718 45.8374 41.0749 46.0374 40.5749C46.6999 38.9187 48.1812 35.1999 47.4812 34.3156V34.3124Z" fill="white"/>
</svg>
