<svg width="50" height="50" viewBox="0 0 50 50" fill="none" xmlns="http://www.w3.org/2000/svg">
<path d="M47.9359 20.8859C46.9781 20.2547 45.8016 19.8781 44.5375 19.8781C44.3922 19.8781 44.2484 19.8828 44.1063 19.8922L44.125 19.8906C43.4281 19.8922 42.7469 19.9547 42.0844 20.0703L42.1562 20.0594C41.7891 17.939 40.5547 16.1609 38.8406 15.0734L38.8109 15.0562L38.1406 14.6687L37.7 15.3062C37.175 16.1062 36.7641 17.0375 36.5187 18.0328L36.5063 18.0937C36.3672 18.6 36.2875 19.1812 36.2875 19.7812C36.2875 21.0797 36.6625 22.289 37.3094 23.3094L37.2938 23.2828C36.2984 23.75 35.1359 24.0453 33.9125 24.1015H33.8922H3.06563C2.25938 24.1031 1.60625 24.7547 1.60313 25.5594C1.60156 25.6469 1.60156 25.7515 1.60156 25.8562C1.60156 28.5922 2.09688 31.2125 3.00313 33.6328L2.95312 33.4797C3.825 36.0312 5.47187 38.1281 7.60937 39.5437L7.65312 39.5703C10.3781 40.9812 13.6031 41.8078 17.0203 41.8078C17.3438 41.8078 17.6641 41.8 17.9844 41.7859L17.9391 41.7875C17.9672 41.7875 18 41.7875 18.0328 41.7875C20.0203 41.7875 21.9625 41.5984 23.8453 41.2375L23.6531 41.2687C26.4578 40.7437 28.9578 39.8015 31.2234 38.4984L31.1078 38.5594C33.0719 37.4109 34.75 36.0265 36.1781 34.4156L36.1969 34.3937C38.2672 31.9562 39.9516 29.1109 41.1109 26.0109L41.175 25.8156H41.6063C41.6922 25.8187 41.7922 25.8218 41.8922 25.8218C43.8078 25.8218 45.5484 25.0703 46.8344 23.8453L46.8312 23.8484C47.4203 23.289 47.8875 22.6094 48.1953 21.8469L48.2094 21.8094L48.4 21.2484L47.9359 20.8859ZM5.92188 23.2015H10.0562C10.2547 23.2 10.4156 23.039 10.4156 22.8406V19.1609C10.4156 18.9625 10.2547 18.8 10.0562 18.7984H5.92188C5.72344 18.8 5.5625 18.9609 5.5625 19.1594V22.8406C5.5625 23.039 5.72344 23.2015 5.92188 23.2015ZM11.6156 23.2015H15.7469C15.9453 23.2015 16.1078 23.0406 16.1078 22.8406V19.1609C16.1078 18.9625 15.9469 18.8 15.7484 18.7984H11.6141C11.4141 18.7984 11.2516 18.9609 11.2516 19.1609V22.8406C11.2531 23.0406 11.4156 23.2015 11.6156 23.2015ZM17.3938 23.2015H21.5281C21.7266 23.2 21.8875 23.039 21.8875 22.8406V19.1609C21.8875 18.9625 21.7266 18.8 21.5281 18.7984H17.3938C17.1953 18.8 17.0344 18.9609 17.0344 19.1594V22.8406C17.0344 23.039 17.1953 23.2015 17.3953 23.2015H17.3938ZM23.1063 23.2015H27.2359C27.4359 23.2015 27.5969 23.0406 27.5984 22.8406V19.1609C27.5984 18.9609 27.4359 18.7984 27.2359 18.7984H23.1063C22.9078 18.7984 22.7453 18.9594 22.7453 19.1594V22.8406C22.7453 23.039 22.9062 23.2015 23.1047 23.2015C23.1047 23.2015 23.1047 23.2015 23.1063 23.2015ZM11.6156 17.9078H15.7469C15.9469 17.9062 16.1078 17.7453 16.1078 17.5453V13.8656C16.1078 13.6672 15.9469 13.5047 15.7469 13.5047H11.6156C11.4156 13.5047 11.2547 13.6656 11.2531 13.8656V17.5453C11.2547 17.7453 11.4156 17.9062 11.6156 17.9078ZM17.3938 17.9078H21.5281C21.7266 17.9062 21.8875 17.7437 21.8875 17.5453V13.8656C21.8875 13.6672 21.7266 13.5047 21.5266 13.5047H17.3969C17.1984 13.5047 17.0359 13.6656 17.0359 13.8656V17.5453C17.0375 17.7453 17.1969 17.9062 17.3969 17.9078H17.3938ZM23.1063 17.9078H27.2359C27.4359 17.9062 27.5969 17.7453 27.5984 17.5453V13.8656C27.5969 13.6656 27.4359 13.5047 27.2359 13.5047H23.1063C22.9078 13.5047 22.7453 13.6656 22.7453 13.8656V17.5453C22.7453 17.7453 22.9062 17.9062 23.1063 17.9078ZM23.1063 12.614H27.2359C27.4359 12.614 27.5984 12.4515 27.5984 12.2515V8.57029C27.5969 8.37029 27.4359 8.20935 27.2359 8.20935H23.1063C22.9078 8.20935 22.7453 8.37029 22.7453 8.57029V12.2515C22.7453 12.45 22.9062 12.6125 23.1047 12.6125C23.1047 12.6125 23.1047 12.6125 23.1063 12.6125V12.614ZM28.8672 23.2015H32.9984C33.1984 23.2015 33.3594 23.0406 33.3609 22.8406V19.1609C33.3609 18.9609 33.1984 18.7984 32.9984 18.7984H28.8672C28.6672 18.7984 28.5063 18.9594 28.5063 19.1594V22.8406C28.5063 23.039 28.6672 23.2015 28.8672 23.2015Z" fill="white"/>
</svg>
