<svg width="50" height="50" viewBox="0 0 50 50" fill="none" xmlns="http://www.w3.org/2000/svg">
<path d="M25 6.25H18.75C15.2982 6.25 12.5 9.04823 12.5 12.5C12.5 15.9518 15.2982 18.75 18.75 18.75M25 6.25V18.75M25 6.25H31.25C34.7019 6.25 37.5 9.04823 37.5 12.5C37.5 15.9518 34.7019 18.75 31.25 18.75M18.75 18.75H25M18.75 18.75C15.2982 18.75 12.5 21.5481 12.5 25C12.5 28.4519 15.2982 31.25 18.75 31.25M25 18.75H31.25M25 18.75V31.25M31.25 18.75C34.7019 18.75 37.5 21.5481 37.5 25C37.5 28.4519 34.7019 31.25 31.25 31.25C27.7981 31.25 25 28.4519 25 25C25 21.5481 27.7981 18.75 31.25 18.75ZM25 31.25H18.75M25 31.25V37.5C25 40.9519 22.2019 43.75 18.75 43.75C15.2982 43.75 12.5 40.9519 12.5 37.5C12.5 34.0481 15.2982 31.25 18.75 31.25" stroke="white" stroke-width="2" stroke-linecap="round" stroke-linejoin="round"/>
</svg>
