<svg width="50" height="50" viewBox="0 0 50 50" fill="none" xmlns="http://www.w3.org/2000/svg">
<g clip-path="url(#clip0_72_130)">
<path d="M29.648 5.73126L39.9292 11.6667C40.7417 10.8125 41.8876 10.2833 43.1563 10.2833C45.6167 10.2833 47.6105 12.2771 47.6105 14.7375C47.6105 16.8229 46.1771 18.575 44.2417 19.0583L44.2105 19.0646V30.9396C46.1875 31.425 47.6313 33.1813 47.6313 35.275C47.6313 37.7375 45.6355 39.7333 43.173 39.7333C41.8459 39.7333 40.6563 39.1542 39.8396 38.2354L39.8355 38.2313L29.6167 44.1313C29.7605 44.5521 29.8438 45.0354 29.8438 45.5375C29.8438 48 27.848 49.9958 25.3855 49.9958C22.923 49.9958 20.9271 48 20.9271 45.5375C20.9271 45.0875 20.9938 44.6521 21.1188 44.2438L21.1105 44.275L10.8167 38.35C10.0042 39.1979 8.86047 39.725 7.59588 39.725C5.13338 39.725 3.13755 37.7292 3.13755 35.2667C3.13755 33.1792 4.57297 31.425 6.51047 30.9417L6.54172 30.9354V19.0625C4.56047 18.5813 3.11255 16.8208 3.11255 14.725C3.11255 12.2625 5.10838 10.2667 7.57088 10.2667C8.39588 10.2667 9.17088 10.4917 9.83338 10.8833L9.81255 10.8729C10.1959 11.0938 10.525 11.3542 10.8105 11.6563L10.8125 11.6583L21.1 5.72084C20.9834 5.34167 20.9167 4.90626 20.9167 4.45417C20.9167 1.99376 22.9125 -0.0020752 25.373 -0.0020752C27.8334 -0.0020752 29.8292 1.99376 29.8292 4.45417C29.8292 4.91042 29.7605 5.35001 29.6334 5.76459L29.6417 5.73334L29.648 5.73126ZM28.575 7.55834C28.5355 7.60209 28.498 7.63959 28.4563 7.67709L28.4542 7.67917L41.9146 30.9917C41.9688 30.9729 42.0313 30.9583 42.0855 30.9438V19.0542C40.1313 18.5583 38.7084 16.8125 38.7084 14.7375C38.7084 14.3563 38.7563 13.9854 38.8459 13.6313L38.8396 13.6625C38.8521 13.6125 38.8646 13.5604 38.8792 13.5125L28.575 7.55834ZM22.2938 7.68126L22.1688 7.55626L11.8646 13.4979C11.975 13.8667 12.0396 14.2917 12.0396 14.7313C12.0396 16.75 10.6959 18.4542 8.85213 19L8.82088 19.0083L8.66255 19.0521V30.9438L8.83755 30.9917L22.298 7.67917L22.2938 7.68126ZM26.6188 8.73751C26.2459 8.84792 25.8188 8.91251 25.3771 8.91251C24.9355 8.91251 24.5084 8.84792 24.1042 8.72917L24.1355 8.73751L10.6771 32.0479C11.273 32.6229 11.7105 33.3583 11.9209 34.1854L11.9271 34.2167H38.825C39.0375 33.3563 39.4771 32.6167 40.073 32.0438L40.0751 32.0417L26.625 8.73751H26.6188ZM28.673 42.5438L38.9167 36.6313C38.8855 36.5333 38.8605 36.4354 38.8375 36.3354H11.9209L11.8771 36.5083L22.1667 42.45C22.9792 41.6104 24.1167 41.0896 25.375 41.0896C26.6792 41.0896 27.8521 41.6479 28.6688 42.5396L28.673 42.5438Z" fill="white"/>
</g>
<defs>
<clipPath id="clip0_72_130">
<rect width="50" height="50" fill="white"/>
</clipPath>
</defs>
</svg>
