<svg width="50" height="50" viewBox="0 0 50 50" fill="none" xmlns="http://www.w3.org/2000/svg">
<path d="M24.7204 36.2266C24.7204 36.2266 24.7204 20.0375 25.2579 20.0391C25.6735 20.0391 26.2141 40.9219 26.2141 40.9219C25.4704 40.8344 24.7204 37.4859 24.7204 36.2266ZM35.1391 20.2266C33.7032 13.9516 30.5579 8.55625 26.2204 4.39219L26.2094 4.38281C25.6813 3.57656 25.1985 2.65156 24.811 1.67656L24.7735 1.57031C24.775 1.60156 24.775 1.63906 24.775 1.67656C24.775 2.55937 24.3797 3.34844 23.7563 3.87813L23.7516 3.88125C18.1672 8.62187 14.6141 15.6078 14.4969 23.425V23.4453C14.4954 23.5422 14.4954 23.6562 14.4954 23.7703C14.4954 31.5156 18.2219 38.3906 23.9797 42.7L24.0407 42.7438L24.1766 42.8422C24.4277 44.7005 24.6422 46.563 24.8204 48.4297H25.7594C26.0188 46.1 26.3688 44.0609 26.8266 42.0609L26.7547 42.4344C27.3735 42.0047 27.9141 41.5594 28.4188 41.0766L28.4141 41.0812C32.7907 37.0234 35.5219 31.2422 35.5219 24.825C35.5219 24.7297 35.5219 24.6359 35.5204 24.5406V24.5547C35.5157 23.0219 35.3766 21.5234 35.1125 20.0688L35.136 20.2234L35.1391 20.2266Z" fill="white"/>
</svg>
