<svg width="70" height="17" viewBox="0 0 70 17" fill="none" xmlns="http://www.w3.org/2000/svg">
<g clip-path="url(#clip0_71_21)">
<path d="M46.5339 0.00708008H58.7267V2.73287H53.89V17.0729H51.4714V2.73287H46.5339V0.00708008Z" fill="white"/>
<path d="M26.4813 0.00708008V2.73287H16.708V7.11784H24.5677V9.84363H16.708V14.3471H26.4813V17.0729H14.2896V2.73287H14.2886V0.00708008H26.4813Z" fill="white"/>
<path d="M32.5695 0.0142822H29.4045L40.7406 17.0801H43.9148L38.246 8.55307L43.9057 0.0273024L40.7406 0.0332266L36.6614 6.16948L32.5695 0.0142822Z" fill="white"/>
<path d="M35.8172 12.2045L34.2323 9.81763L29.3955 17.0931H32.5695L35.8172 12.2045Z" fill="white"/>
<path fill-rule="evenodd" clip-rule="evenodd" d="M14.3743 17.073L3.02299 0H0V17.0658H2.41839V3.64781L11.3362 17.073H14.3743Z" fill="white"/>
<path d="M59.2703 16.9687C59.0931 16.9687 58.9425 16.8944 58.8163 16.7458C58.6902 16.5971 58.6278 16.4172 58.6294 16.204C58.6278 15.9967 58.6902 15.8187 58.8163 15.6701C58.9425 15.5215 59.0931 15.4471 59.2703 15.4471C59.4406 15.4471 59.5897 15.5215 59.7158 15.6701C59.8438 15.8187 59.9075 15.9967 59.9093 16.204C59.9075 16.3448 59.8781 16.4739 59.8191 16.5893C59.7585 16.7067 59.6816 16.7986 59.5847 16.8651C59.4897 16.9335 59.3849 16.9687 59.2703 16.9687Z" fill="white"/>
<path d="M63.3979 9.77942H64.4696V14.7803C64.468 15.2399 64.3859 15.633 64.2254 15.9635C64.0632 16.294 63.8387 16.5463 63.5503 16.7243C63.2636 16.9003 62.9276 16.9903 62.5458 16.9903C62.1967 16.9903 61.8838 16.914 61.6052 16.7654C61.3267 16.6167 61.1055 16.3938 60.9433 16.1004C60.7793 15.807 60.699 15.4413 60.699 15.0032H61.7724C61.774 15.1949 61.8101 15.3611 61.8789 15.5C61.9476 15.6388 62.0427 15.7444 62.164 15.8188C62.2868 15.8931 62.4278 15.9303 62.5867 15.9303C62.7588 15.9303 62.9063 15.8872 63.0259 15.7992C63.1454 15.7132 63.2373 15.5841 63.3012 15.412C63.3634 15.2418 63.3963 15.0306 63.3979 14.7803V9.77942Z" fill="white"/>
<path d="M68.8791 11.7352C68.853 11.432 68.7382 11.1954 68.5383 11.0272C68.3367 10.857 68.0762 10.7729 67.7566 10.7729C67.5322 10.7729 67.3389 10.814 67.1783 10.8942C67.0177 10.9763 66.8931 11.0859 66.8079 11.2247C66.7228 11.3636 66.6801 11.522 66.6767 11.7C66.6767 11.8486 66.7062 11.9777 66.7636 12.0853C66.821 12.1948 66.8979 12.2867 66.998 12.361C67.0962 12.4373 67.206 12.4999 67.3258 12.5507C67.4469 12.6016 67.5683 12.6446 67.6894 12.6798L68.2482 12.846C68.4728 12.9086 68.6908 12.9927 68.8988 13.1003C69.1068 13.2059 69.2953 13.3409 69.4608 13.5032C69.6263 13.6655 69.7575 13.8611 69.8541 14.0899C69.9508 14.3187 70 14.5867 70 14.8957C70 15.3122 69.9115 15.678 69.7328 15.9948C69.5542 16.3097 69.2969 16.5561 68.9594 16.7341C68.6234 16.9101 68.2171 17 67.7386 17C67.2765 17 66.8734 16.914 66.5343 16.7419C66.1935 16.5718 65.9279 16.3214 65.7362 15.9928C65.5445 15.6643 65.4413 15.2633 65.4265 14.792H66.4884C66.5032 15.0384 66.5687 15.2438 66.6801 15.41C66.7931 15.5743 66.9406 15.6956 67.1209 15.7777C67.3028 15.8579 67.5059 15.899 67.7305 15.899C67.9648 15.899 68.1713 15.8559 68.3498 15.7718C68.5268 15.6877 68.6661 15.5704 68.7661 15.4179C68.8677 15.2673 68.9185 15.0893 68.9201 14.8859C68.9185 14.7001 68.8725 14.5456 68.784 14.4243C68.694 14.3031 68.5694 14.2014 68.4104 14.1192C68.25 14.0371 68.0631 13.9628 67.85 13.8982L67.1717 13.6909C66.6817 13.5403 66.2933 13.3115 66.0098 13.0045C65.7248 12.6974 65.5837 12.2906 65.5837 11.7802C65.5837 11.3616 65.6788 10.994 65.8707 10.6791C66.0606 10.3642 66.3212 10.1197 66.6506 9.94567C66.9816 9.76967 67.3552 9.68359 67.7713 9.68359C68.1942 9.68359 68.5644 9.76967 68.8841 9.94567C69.2035 10.1197 69.4544 10.3623 69.6361 10.6713C69.818 10.9803 69.9131 11.3343 69.9181 11.7352H68.8791Z" fill="white"/>
</g>
<defs>
<clipPath id="clip0_71_21">
<rect width="70" height="17" fill="white"/>
</clipPath>
</defs>
</svg>
