<svg width="50" height="50" viewBox="0 0 50 50" fill="none" xmlns="http://www.w3.org/2000/svg">
<g clip-path="url(#clip0_72_120)">
<path d="M45.3731 37.9868L28.226 1.5725C27.7919 0.659513 26.8923 0.0579863 25.8827 0.00574292C24.8708 -0.0620554 23.9052 0.438531 23.3774 1.30452L4.77946 31.4269C4.20209 32.3555 4.21424 33.5343 4.81062 34.4507L13.9033 48.5316C14.6098 49.6171 15.9462 50.1086 17.1876 49.7394L43.5745 41.9343C44.3783 41.6992 45.0408 41.1273 45.3905 40.3663C45.7355 39.6089 45.7296 38.7382 45.3743 37.9856L45.3731 37.9868ZM41.5341 39.5486L19.1433 46.1696C18.4602 46.3728 17.8046 45.7807 17.9467 45.0915L25.9463 6.78755C26.0958 6.07085 27.0855 5.95743 27.3984 6.62053L42.2071 38.0679C42.3396 38.3515 42.3412 38.6789 42.2115 38.9638C42.0818 39.2486 41.8337 39.4624 41.5328 39.5486H41.5341Z" fill="white"/>
</g>
<defs>
<clipPath id="clip0_72_120">
<rect width="50" height="50" fill="white"/>
</clipPath>
</defs>
</svg>
